<?xml version="1.0" encoding="UTF-8" standalone="no"?>
<!DOCTYPE svg PUBLIC "-//W3C//DTD SVG 1.1//EN"
 "http://www.w3.org/Graphics/SVG/1.1/DTD/svg11.dtd">
<!-- Generated by graphviz version 2.43.0 (0)
 -->
<!-- Title: SimpleWorkflow Pages: 1 -->
<svg width="1274pt" height="253pt"
 viewBox="0.00 0.00 611.60 121.60" xmlns="http://www.w3.org/2000/svg" xmlns:xlink="http://www.w3.org/1999/xlink">
<g id="graph0" class="graph" transform="scale(2.08 2.08) rotate(0) translate(28.8 92.8)">
<title>SimpleWorkflow</title>
<polygon fill="#1a1a2e" stroke="transparent" points="-28.8,28.8 -28.8,-92.8 582.8,-92.8 582.8,28.8 -28.8,28.8"/>
<!-- s1 -->
<g id="node1" class="node">
<title>s1</title>
<path fill="#0078d4" stroke="black" stroke-width="0" d="M42,-36C42,-36 12,-36 12,-36 6,-36 0,-30 0,-24 0,-24 0,-12 0,-12 0,-6 6,0 12,0 12,0 42,0 42,0 48,0 54,-6 54,-12 54,-12 54,-24 54,-24 54,-30 48,-36 42,-36"/>
<text text-anchor="middle" x="27" y="-15.5" font-family="Segoe UI, Arial, sans-serif" font-size="10.00" fill="white">1. Plan</text>
</g>
<!-- s2 -->
<g id="node2" class="node">
<title>s2</title>
<path fill="#ff6b35" stroke="black" stroke-width="0" d="M139,-36C139,-36 95,-36 95,-36 89,-36 83,-30 83,-24 83,-24 83,-12 83,-12 83,-6 89,0 95,0 95,0 139,0 139,0 145,0 151,-6 151,-12 151,-12 151,-24 151,-24 151,-30 145,-36 139,-36"/>
<text text-anchor="middle" x="117" y="-15.5" font-family="Segoe UI, Arial, sans-serif" font-size="10.00" fill="white">2. Architect</text>
</g>
<!-- s1&#45;&gt;s2 -->
<g id="edge1" class="edge">
<title>s1&#45;&gt;s2</title>
<path fill="none" stroke="#64748b" stroke-width="2" stroke-dasharray="5,2" d="M54,-18C54,-18 76.99,-18 76.99,-18"/>
<polygon fill="#64748b" stroke="#64748b" stroke-width="2" points="76.99,-20.1 82.99,-18 76.99,-15.9 76.99,-20.1"/>
</g>
<!-- s3 -->
<g id="node3" class="node">
<title>s3</title>
<path fill="#8b5cf6" stroke="black" stroke-width="0" stroke-dasharray="5,2" d="M238,-64C238,-64 192,-64 192,-64 186,-64 180,-58 180,-52 180,-52 180,-40 180,-40 180,-34 186,-28 192,-28 192,-28 238,-28 238,-28 244,-28 250,-34 250,-40 250,-40 250,-52 250,-52 250,-58 244,-64 238,-64"/>
<text text-anchor="middle" x="215" y="-49" font-family="Segoe UI, Arial, sans-serif" font-size="10.00" fill="white">3. Pre&#45;Build</text>
<text text-anchor="middle" x="215" y="-38" font-family="Segoe UI, Arial, sans-serif" font-size="10.00" fill="white">Artifacts</text>
</g>
<!-- s2&#45;&gt;s3 -->
<g id="edge2" class="edge">
<title>s2&#45;&gt;s3</title>
<path fill="none" stroke="#64748b" stroke-width="2" stroke-dasharray="5,2" d="M151,-32C151,-32 173.73,-32 173.73,-32"/>
<polygon fill="#64748b" stroke="#64748b" stroke-width="2" points="173.73,-34.1 179.73,-32 173.73,-29.9 173.73,-34.1"/>
</g>
<!-- s4 -->
<g id="node4" class="node">
<title>s4</title>
<path fill="#10b981" stroke="black" stroke-width="0" d="M339,-36C339,-36 291,-36 291,-36 285,-36 279,-30 279,-24 279,-24 279,-12 279,-12 279,-6 285,0 291,0 291,0 339,0 339,0 345,0 351,-6 351,-12 351,-12 351,-24 351,-24 351,-30 345,-36 339,-36"/>
<text text-anchor="middle" x="315" y="-15.5" font-family="Segoe UI, Arial, sans-serif" font-size="10.00" fill="white">4. Plan Infra</text>
</g>
<!-- s2&#45;&gt;s4 -->
<g id="edge3" class="edge">
<title>s2&#45;&gt;s4</title>
<path fill="none" stroke="#64748b" stroke-width="2" d="M151.04,-14C151.04,-14 272.73,-14 272.73,-14"/>
<polygon fill="#64748b" stroke="#64748b" stroke-width="2" points="272.73,-16.1 278.73,-14 272.73,-11.9 272.73,-16.1"/>
</g>
<!-- s3&#45;&gt;s4 -->
<g id="edge4" class="edge">
<title>s3&#45;&gt;s4</title>
<path fill="none" stroke="#64748b" stroke-width="2" stroke-dasharray="5,2" d="M250.26,-32C250.26,-32 272.71,-32 272.71,-32"/>
<polygon fill="#64748b" stroke="#64748b" stroke-width="2" points="272.71,-34.1 278.71,-32 272.71,-29.9 272.71,-34.1"/>
</g>
<!-- s5 -->
<g id="node5" class="node">
<title>s5</title>
<path fill="#ec4899" stroke="black" stroke-width="0" d="M438,-36C438,-36 392,-36 392,-36 386,-36 380,-30 380,-24 380,-24 380,-12 380,-12 380,-6 386,0 392,0 392,0 438,0 438,0 444,0 450,-6 450,-12 450,-12 450,-24 450,-24 450,-30 444,-36 438,-36"/>
<text text-anchor="middle" x="415" y="-15.5" font-family="Segoe UI, Arial, sans-serif" font-size="10.00" fill="white">5. Generate</text>
</g>
<!-- s4&#45;&gt;s5 -->
<g id="edge5" class="edge">
<title>s4&#45;&gt;s5</title>
<path fill="none" stroke="#64748b" stroke-width="2" stroke-dasharray="5,2" d="M351.1,-18C351.1,-18 373.95,-18 373.95,-18"/>
<polygon fill="#64748b" stroke="#64748b" stroke-width="2" points="373.95,-20.1 379.95,-18 373.95,-15.9 373.95,-20.1"/>
</g>
<!-- s6 -->
<g id="node6" class="node">
<title>s6</title>
<path fill="#f4722b" stroke="black" stroke-width="0" stroke-dasharray="5,2" d="M542,-36C542,-36 491,-36 491,-36 485,-36 479,-30 479,-24 479,-24 479,-12 479,-12 479,-6 485,0 491,0 491,0 542,0 542,0 548,0 554,-6 554,-12 554,-12 554,-24 554,-24 554,-30 548,-36 542,-36"/>
<text text-anchor="middle" x="516.5" y="-21" font-family="Segoe UI, Arial, sans-serif" font-size="10.00" fill="white">6. Post&#45;Build</text>
<text text-anchor="middle" x="516.5" y="-10" font-family="Segoe UI, Arial, sans-serif" font-size="10.00" fill="white">Artifacts</text>
</g>
<!-- s5&#45;&gt;s6 -->
<g id="edge6" class="edge">
<title>s5&#45;&gt;s6</title>
<path fill="none" stroke="#64748b" stroke-width="2" stroke-dasharray="5,2" d="M450.21,-18C450.21,-18 472.93,-18 472.93,-18"/>
<polygon fill="#64748b" stroke="#64748b" stroke-width="2" points="472.93,-20.1 478.93,-18 472.93,-15.9 472.93,-20.1"/>
</g>
</g>
</svg>
