<?xml version="1.0" encoding="UTF-8" standalone="no"?>
<!DOCTYPE svg PUBLIC "-//W3C//DTD SVG 1.1//EN"
 "http://www.w3.org/Graphics/SVG/1.1/DTD/svg11.dtd">
<!-- Generated by graphviz version 2.43.0 (0)
 -->
<!-- Title: SimpleWorkflow Pages: 1 -->
<svg width="1732pt" height="403pt"
 viewBox="0.00 0.00 831.60 193.60" xmlns="http://www.w3.org/2000/svg" xmlns:xlink="http://www.w3.org/1999/xlink">
<g id="graph0" class="graph" transform="scale(2.08 2.08) rotate(0) translate(28.8 164.8)">
<title>SimpleWorkflow</title>
<polygon fill="#1a1a2e" stroke="transparent" points="-28.8,28.8 -28.8,-164.8 802.8,-164.8 802.8,28.8 -28.8,28.8"/>
<!-- plan -->
<g id="node1" class="node">
<title>plan</title>
<path fill="#0078d4" stroke="black" stroke-width="0" d="M77.5,-102C77.5,-102 38.5,-102 38.5,-102 32.5,-102 26.5,-96 26.5,-90 26.5,-90 26.5,-78 26.5,-78 26.5,-72 32.5,-66 38.5,-66 38.5,-66 77.5,-66 77.5,-66 83.5,-66 89.5,-72 89.5,-78 89.5,-78 89.5,-90 89.5,-90 89.5,-96 83.5,-102 77.5,-102"/>
<text text-anchor="middle" x="58" y="-81.2" font-family="Segoe UI" font-size="11.00" fill="white">@plan</text>
</g>
<!-- architect -->
<g id="node2" class="node">
<title>architect</title>
<path fill="#ff6b35" stroke="black" stroke-width="0" d="M253,-107C253,-107 164,-107 164,-107 158,-107 152,-101 152,-95 152,-95 152,-73 152,-73 152,-67 158,-61 164,-61 164,-61 253,-61 253,-61 259,-61 265,-67 265,-73 265,-73 265,-95 265,-95 265,-101 259,-107 253,-107"/>
<text text-anchor="middle" x="208.5" y="-87.2" font-family="Segoe UI" font-size="11.00" fill="white">azure&#45;principal&#45;</text>
<text text-anchor="middle" x="208.5" y="-75.2" font-family="Segoe UI" font-size="11.00" fill="white">architect</text>
</g>
<!-- plan&#45;&gt;architect -->
<g id="edge1" class="edge">
<title>plan&#45;&gt;architect</title>
<path fill="none" stroke="#64748b" stroke-width="2" d="M89.51,-85.17C103.73,-85.53 117.6,-85.5 144.78,-85.1"/>
<polygon fill="#64748b" stroke="#64748b" stroke-width="2" points="145.03,-87.54 151.99,-84.99 144.95,-82.64 145.03,-87.54"/>
</g>
<!-- pre_artifacts -->
<g id="node3" class="node">
<title>pre_artifacts</title>
<path fill="#8b5cf6" stroke="black" stroke-width="0" stroke-dasharray="5,2" d="M366,-136C366,-136 313,-136 313,-136 307,-136 301,-130 301,-124 301,-124 301,-102 301,-102 301,-96 307,-90 313,-90 313,-90 366,-90 366,-90 372,-90 378,-96 378,-102 378,-102 378,-124 378,-124 378,-130 372,-136 366,-136"/>
<text text-anchor="middle" x="339.5" y="-116.2" font-family="Segoe UI" font-size="11.00" fill="white">Pre&#45;Build</text>
<text text-anchor="middle" x="339.5" y="-104.2" font-family="Segoe UI" font-size="11.00" fill="white">Artifacts</text>
</g>
<!-- architect&#45;&gt;pre_artifacts -->
<g id="edge2" class="edge">
<title>architect&#45;&gt;pre_artifacts</title>
<path fill="none" stroke="#64748b" stroke-width="2" stroke-dasharray="5,2" d="M265.03,-105.7C272.72,-106.91 281.93,-107.96 293.63,-109.08"/>
<polygon fill="#64748b" stroke="#64748b" stroke-width="2" points="293.63,-111.53 300.82,-109.74 294.08,-106.66 293.63,-111.53"/>
</g>
<!-- bicep_plan -->
<g id="node4" class="node">
<title>bicep_plan</title>
<path fill="#10b981" stroke="black" stroke-width="0" d="M487,-97C487,-97 426,-97 426,-97 420,-97 414,-91 414,-85 414,-85 414,-73 414,-73 414,-67 420,-61 426,-61 426,-61 487,-61 487,-61 493,-61 499,-67 499,-73 499,-73 499,-85 499,-85 499,-91 493,-97 487,-97"/>
<text text-anchor="middle" x="456.5" y="-76.2" font-family="Segoe UI" font-size="11.00" fill="white">bicep&#45;plan</text>
</g>
<!-- architect&#45;&gt;bicep_plan -->
<g id="edge3" class="edge">
<title>architect&#45;&gt;bicep_plan</title>
<path fill="none" stroke="#64748b" stroke-width="2" d="M265.26,-89.94C295.69,-91.68 326.83,-89.74 406.51,-83.17"/>
<polygon fill="#64748b" stroke="#64748b" stroke-width="2" points="407.08,-85.58 413.86,-82.56 406.68,-80.7 407.08,-85.58"/>
</g>
<!-- pre_artifacts&#45;&gt;bicep_plan -->
<g id="edge4" class="edge">
<title>pre_artifacts&#45;&gt;bicep_plan</title>
<path fill="none" stroke="#64748b" stroke-width="2" stroke-dasharray="5,2" d="M378.28,-115.64C399.75,-116.13 410.83,-112.91 427.57,-101.31"/>
<polygon fill="#64748b" stroke="#64748b" stroke-width="2" points="429.23,-103.13 433.48,-97.05 426.37,-99.15 429.23,-103.13"/>
</g>
<!-- bicep_implement -->
<g id="node5" class="node">
<title>bicep_implement</title>
<path fill="#ec4899" stroke="black" stroke-width="0" d="M643,-97C643,-97 547,-97 547,-97 541,-97 535,-91 535,-85 535,-85 535,-73 535,-73 535,-67 541,-61 547,-61 547,-61 643,-61 643,-61 649,-61 655,-67 655,-73 655,-73 655,-85 655,-85 655,-91 649,-97 643,-97"/>
<text text-anchor="middle" x="595" y="-76.2" font-family="Segoe UI" font-size="11.00" fill="white">bicep&#45;implement</text>
</g>
<!-- bicep_plan&#45;&gt;bicep_implement -->
<g id="edge5" class="edge">
<title>bicep_plan&#45;&gt;bicep_implement</title>
<path fill="none" stroke="#64748b" stroke-width="2" d="M499.35,-79.95C510.53,-80.19 519.7,-80.36 527.49,-80.48"/>
<polygon fill="#64748b" stroke="#64748b" stroke-width="2" points="527.82,-82.93 534.85,-80.57 527.88,-78.03 527.82,-82.93"/>
</g>
<!-- post_artifacts -->
<g id="node6" class="node">
<title>post_artifacts</title>
<path fill="#f4722b" stroke="black" stroke-width="0" stroke-dasharray="5,2" d="M762,-102C762,-102 703,-102 703,-102 697,-102 691,-96 691,-90 691,-90 691,-68 691,-68 691,-62 697,-56 703,-56 703,-56 762,-56 762,-56 768,-56 774,-62 774,-68 774,-68 774,-90 774,-90 774,-96 768,-102 762,-102"/>
<text text-anchor="middle" x="732.5" y="-82.2" font-family="Segoe UI" font-size="11.00" fill="white">Post&#45;Build</text>
<text text-anchor="middle" x="732.5" y="-70.2" font-family="Segoe UI" font-size="11.00" fill="white">Artifacts</text>
</g>
<!-- bicep_implement&#45;&gt;post_artifacts -->
<g id="edge6" class="edge">
<title>bicep_implement&#45;&gt;post_artifacts</title>
<path fill="none" stroke="#64748b" stroke-width="2" stroke-dasharray="5,2" d="M655.16,-79.65C666.98,-79.76 675.97,-79.82 683.6,-79.82"/>
<polygon fill="#64748b" stroke="#64748b" stroke-width="2" points="683.83,-82.27 690.82,-79.8 683.82,-77.37 683.83,-82.27"/>
</g>
<!-- governance -->
<g id="node7" class="node">
<title>governance</title>
<path fill="#06b6d4" stroke="black" stroke-width="0" d="M104,-36C104,-36 12,-36 12,-36 6,-36 0,-30 0,-24 0,-24 0,-12 0,-12 0,-6 6,0 12,0 12,0 104,0 104,0 110,0 116,-6 116,-12 116,-12 116,-24 116,-24 116,-30 110,-36 104,-36"/>
<text text-anchor="middle" x="58" y="-15.2" font-family="Segoe UI" font-size="11.00" fill="white">🔒 Governance</text>
</g>
<!-- governance&#45;&gt;bicep_plan -->
<g id="edge7" class="edge">
<title>governance&#45;&gt;bicep_plan</title>
<path fill="none" stroke="#64748b" stroke-width="2" stroke-dasharray="5,2" d="M116.03,-26.99C182.03,-37.19 223.74,-43.55 406.73,-71.42"/>
<polygon fill="#64748b" stroke="#64748b" stroke-width="2" points="406.57,-73.88 413.86,-72.51 407.31,-69.03 406.57,-73.88"/>
</g>
</g>
</svg>
